<svg width="90" height="90" viewBox="0 0 90 90" fill="none" xmlns="http://www.w3.org/2000/svg">
<g filter="url(#filter0_d)">
<rect x="20.0002" y="10" width="50" height="50" rx="15" fill="#E9E6FF"/>
</g>
<path fill-rule="evenodd" clip-rule="evenodd" d="M46.4502 27.8802H49.5202C53.2102 27.8802 55.0102 29.8502 55.0002 33.8902V38.7602C55.0002 42.6202 52.6202 45.0002 48.7502 45.0002H41.2402C37.3902 45.0002 35.0002 42.6202 35.0002 38.7502V31.2402C35.0002 27.1002 36.8402 25.0002 40.4702 25.0002H42.0502C42.9812 24.9902 43.8502 25.4202 44.4202 26.1502L45.3002 27.3202C45.5802 27.6702 46.0002 27.8802 46.4502 27.8802ZM40.3703 38.2902H49.6303C50.0403 38.2902 50.3703 37.9502 50.3703 37.5402C50.3703 37.1202 50.0403 36.7902 49.6303 36.7902H40.3703C39.9503 36.7902 39.6203 37.1202 39.6203 37.5402C39.6203 37.9502 39.9503 38.2902 40.3703 38.2902Z" fill="#8E7EFC"/>
<defs>
<filter id="filter0_d" x="0.000244141" y="0" width="90" height="90" filterUnits="userSpaceOnUse" color-interpolation-filters="sRGB">
<feFlood flood-opacity="0" result="BackgroundImageFix"/>
<feColorMatrix in="SourceAlpha" type="matrix" values="0 0 0 0 0 0 0 0 0 0 0 0 0 0 0 0 0 0 127 0"/>
<feOffset dy="10"/>
<feGaussianBlur stdDeviation="10"/>
<feColorMatrix type="matrix" values="0 0 0 0 0.770833 0 0 0 0 0.619075 0 0 0 0 0.56849 0 0 0 0.1 0"/>
<feBlend mode="normal" in2="BackgroundImageFix" result="effect1_dropShadow"/>
<feBlend mode="normal" in="SourceGraphic" in2="effect1_dropShadow" result="shape"/>
</filter>
</defs>
</svg>