<svg width="90" height="90" viewBox="0 0 90 90" fill="none" xmlns="http://www.w3.org/2000/svg">
<g filter="url(#filter0_d)">
<rect x="20.0002" y="10" width="50" height="50" rx="15" fill="#DAE6FF"/>
</g>
<path fill-rule="evenodd" clip-rule="evenodd" d="M35.0002 33.6699C35.0002 28.8817 38.8406 25 43.5779 25C45.8528 25 48.0346 25.9134 49.6432 27.5394C51.2518 29.1653 52.1555 31.3705 52.1555 33.6699C52.1555 38.4582 48.3152 42.3399 43.5779 42.3399C38.8406 42.3399 35.0002 38.4582 35.0002 33.6699ZM52.0136 40.6543L54.5683 42.7164H54.6126C55.1295 43.2388 55.1295 44.0858 54.6126 44.6082C54.0958 45.1306 53.2578 45.1306 52.741 44.6082L50.621 42.1784C50.4205 41.9766 50.3079 41.7023 50.3079 41.4164C50.3079 41.1304 50.4205 40.8561 50.621 40.6543C51.0075 40.2704 51.6271 40.2704 52.0136 40.6543Z" fill="#6E9CFD"/>
<defs>
<filter id="filter0_d" x="0.000244141" y="0" width="90" height="90" filterUnits="userSpaceOnUse" color-interpolation-filters="sRGB">
<feFlood flood-opacity="0" result="BackgroundImageFix"/>
<feColorMatrix in="SourceAlpha" type="matrix" values="0 0 0 0 0 0 0 0 0 0 0 0 0 0 0 0 0 0 127 0"/>
<feOffset dy="10"/>
<feGaussianBlur stdDeviation="10"/>
<feColorMatrix type="matrix" values="0 0 0 0 0.770833 0 0 0 0 0.619075 0 0 0 0 0.56849 0 0 0 0.1 0"/>
<feBlend mode="normal" in2="BackgroundImageFix" result="effect1_dropShadow"/>
<feBlend mode="normal" in="SourceGraphic" in2="effect1_dropShadow" result="shape"/>
</filter>
</defs>
</svg>
